# xmcd
#
# Track frame offsets:
#	150
#	14598
#	27786
#	39456
#	53383
#	67027
#	82121
#	93712
#	108599
#	121149
#	132233
#	149537
#
# Disc length: 2146 seconds
#
# Revision: 0
# Processed by: cddbd v1.5PL3 Copyright (c) Steve Scherf et al.
# Submitted via: dBpowerAMP V4.0
#
DISCID=a608600c
DTITLE=Laberinto - Coleccion de oro disco2
DYEAR=1900
DGENRE=
TTITLE0=Abrigame
TTITLE1=Amor clandestino
TTITLE2=Como duele
TTITLE3=No tardes mas
TTITLE4=Tres mares dos rios
TTITLE5=Besando tu recuerdo
TTITLE6=chulos modos
TTITLE7=El Aguila Real
TTITLE8=El piquete
TTITLE9=Concha del alma
TTITLE10=El celular
TTITLE11=Infiel
EXTD=
EXTT0=
EXTT1=
EXTT2=
EXTT3=
EXTT4=
EXTT5=
EXTT6=
EXTT7=
EXTT8=
EXTT9=
EXTT10=
EXTT11=
PLAYORDER=
